<svg width="280" height="68" viewBox="0 0 280 68" fill="none" xmlns="http://www.w3.org/2000/svg">
<rect width="280" height="68" fill="black"/>
<path d="M36.632 25.912C36.632 24.472 36.992 24.04 39.008 24.04C41.78 24.04 44.408 25.696 44.408 29.008C44.408 33.112 42.104 34.192 36.632 34.192V25.912ZM30.512 46H39.764V45.28C37.064 45.28 36.632 44.776 36.632 42.04V35.056H39.764L45.956 44.668C46.748 45.892 47.108 46 47.432 46H51.428V45.28C50.168 45.28 49.268 44.704 48.332 43.3L42.392 34.516C43.436 34.264 47.72 33.148 47.72 29.08C47.72 24.94 43.796 23.176 38 23.176H31.016V23.896C33.212 23.896 33.644 24.4 33.644 27.136C33.68 32.176 33.536 36.712 33.536 42.04C33.536 44.776 33.104 45.28 30.512 45.28V46ZM59.6157 46H79.1638C79.4517 44.632 80.0278 41.572 80.3877 40.636H79.7038C77.3997 44.488 76.7157 45.136 73.2958 45.136H68.5437C66.7797 45.136 66.2397 44.848 66.2397 43.624V34.552H70.2717C72.8637 34.552 73.4757 35.236 73.8718 38.044H74.6637V30.196H73.8718C73.3317 32.86 73.0438 33.328 69.9477 33.328H66.2397V25.48C66.2397 24.22 66.5637 24.04 68.3637 24.04H71.4598C74.8437 24.04 75.8517 25.228 77.5078 27.28H78.0837L77.3278 23.176H59.9757V23.896C62.7117 23.896 63.1437 24.4 63.1437 27.136C63.1437 32.32 63.0717 37.36 62.9997 42.04C62.9637 44.776 62.5677 45.28 59.6157 45.28V46ZM91.2555 42.472C90.2115 42.472 89.3475 43.336 89.3475 44.38C89.3475 45.424 90.2115 46.288 91.2555 46.288C92.2995 46.288 93.1635 45.424 93.1635 44.38C93.1635 43.336 92.2995 42.472 91.2555 42.472ZM91.2555 31.816C90.2115 31.816 89.3475 32.68 89.3475 33.724C89.3475 34.768 90.2115 35.632 91.2555 35.632C92.2995 35.632 93.1635 34.768 93.1635 33.724C93.1635 32.68 92.2995 31.816 91.2555 31.816ZM124.976 22.384C123.932 23.32 123.608 23.536 121.376 23.536H107.84C106.22 23.536 105.356 23.14 104.672 22.384H103.916L102.368 28.468H103.16C104.312 26.128 105.932 24.76 109.712 24.76C112.52 24.76 112.592 24.832 112.592 27.784C112.592 31.168 112.268 40.024 112.268 42.04C112.268 44.776 111.836 45.28 108.488 45.28V46H118.82V45.28C115.832 45.136 115.148 44.56 115.148 42.04C115.148 40.024 115.472 31.168 115.472 27.784C115.472 24.724 115.796 24.616 118.784 24.616C122.528 24.616 124.112 25.192 124.976 28.468H125.48V22.384H124.976ZM140.46 25.912C140.46 24.472 140.82 24.04 142.836 24.04C145.608 24.04 148.236 25.696 148.236 29.008C148.236 33.112 145.932 34.192 140.46 34.192V25.912ZM134.34 46H143.592V45.28C140.892 45.28 140.46 44.776 140.46 42.04V35.056H143.592L149.784 44.668C150.576 45.892 150.936 46 151.26 46H155.256V45.28C153.996 45.28 153.096 44.704 152.16 43.3L146.22 34.516C147.264 34.264 151.548 33.148 151.548 29.08C151.548 24.94 147.624 23.176 141.828 23.176H134.844V23.896C137.04 23.896 137.472 24.4 137.472 27.136C137.508 32.176 137.364 36.712 137.364 42.04C137.364 44.776 136.932 45.28 134.34 45.28V46ZM175.611 22.888C168.483 22.888 163.695 27.784 163.695 34.588C163.695 41.392 168.483 46.288 175.611 46.288C182.739 46.288 187.527 41.392 187.527 34.588C187.527 27.784 182.739 22.888 175.611 22.888ZM175.611 23.608C181.515 23.608 184.215 27.784 184.215 34.588C184.215 41.392 181.515 45.568 175.611 45.568C169.707 45.568 167.007 41.392 167.007 34.588C167.007 27.784 169.707 23.608 175.611 23.608ZM196.247 23.176V23.896C198.839 23.896 199.271 24.4 199.271 27.136C199.271 30.88 199.163 38.152 199.127 42.04C199.091 44.776 198.695 45.28 195.743 45.28V46H205.715V45.28C202.727 45.28 202.331 44.776 202.295 42.04V35.056H207.119C209.711 35.056 210.323 35.74 210.719 38.332H211.511V30.916H210.719C210.179 33.364 209.891 33.832 206.795 33.832H202.295L202.439 25.624C202.475 24.328 202.619 24.04 203.483 24.04H206.435C211.187 24.04 211.295 24.148 214.463 28.756H215.399C214.895 27.352 214.499 25.156 213.959 23.176H196.247ZM223.599 23.176V23.896C224.823 24.184 225.399 24.328 226.659 26.2L232.707 35.272V42.04C232.707 45.1 232.203 45.244 229.035 45.28V46H239.475V45.28C236.307 45.244 235.803 45.1 235.803 42.04V35.308L241.743 26.776C243.435 24.364 244.335 24.004 245.523 23.896V23.176H238.935V23.896C240.339 23.896 240.843 24.256 240.843 25.084C240.843 26.56 239.295 28.108 235.407 34.264C231.555 28.036 230.115 26.092 230.115 24.976C230.115 24.328 230.763 23.896 232.347 23.896V23.176H223.599Z" fill="white"/>
</svg>
