<svg width="202" height="25" viewBox="0 0 202 25" fill="none" xmlns="http://www.w3.org/2000/svg">
<path d="M6.632 3.912C6.632 2.472 6.992 2.04 9.008 2.04C11.78 2.04 14.408 3.696 14.408 7.008C14.408 11.112 12.104 12.192 6.632 12.192V3.912ZM0.512 24H9.764V23.28C7.064 23.28 6.632 22.776 6.632 20.04V13.056H9.764L15.956 22.668C16.748 23.892 17.108 24 17.432 24H21.428V23.28C20.168 23.28 19.268 22.704 18.332 21.3L12.392 12.516C13.436 12.264 17.72 11.148 17.72 7.08C17.72 2.94 13.796 1.176 8 1.176H1.016V1.896C3.212 1.896 3.644 2.4 3.644 5.136C3.68 10.176 3.536 14.712 3.536 20.04C3.536 22.776 3.104 23.28 0.512 23.28V24ZM29.6157 24H49.1638C49.4517 22.632 50.0278 19.572 50.3877 18.636H49.7038C47.3997 22.488 46.7157 23.136 43.2958 23.136H38.5437C36.7797 23.136 36.2397 22.848 36.2397 21.624V12.552H40.2717C42.8637 12.552 43.4757 13.236 43.8718 16.044H44.6637V8.196H43.8718C43.3317 10.86 43.0438 11.328 39.9477 11.328H36.2397V3.48C36.2397 2.22 36.5637 2.04 38.3637 2.04H41.4598C44.8437 2.04 45.8517 3.228 47.5078 5.28H48.0837L47.3278 1.176H29.9757V1.896C32.7117 1.896 33.1437 2.4 33.1437 5.136C33.1437 10.32 33.0717 15.36 32.9997 20.04C32.9637 22.776 32.5677 23.28 29.6157 23.28V24ZM80.8755 0.383999C79.8315 1.32 79.5075 1.536 77.2755 1.536H63.7395C62.1195 1.536 61.2555 1.14 60.5715 0.383999H59.8155L58.2675 6.468H59.0595C60.2115 4.128 61.8315 2.76 65.6115 2.76C68.4195 2.76 68.4915 2.832 68.4915 5.784C68.4915 9.168 68.1675 18.024 68.1675 20.04C68.1675 22.776 67.7355 23.28 64.3875 23.28V24H74.7195V23.28C71.7315 23.136 71.0475 22.56 71.0475 20.04C71.0475 18.024 71.3715 9.168 71.3715 5.784C71.3715 2.724 71.6955 2.616 74.6835 2.616C78.4275 2.616 80.0115 3.192 80.8755 6.468H81.3795V0.383999H80.8755ZM96.3592 3.912C96.3592 2.472 96.7192 2.04 98.7352 2.04C101.507 2.04 104.135 3.696 104.135 7.008C104.135 11.112 101.831 12.192 96.3592 12.192V3.912ZM90.2392 24H99.4912V23.28C96.7912 23.28 96.3592 22.776 96.3592 20.04V13.056H99.4912L105.683 22.668C106.475 23.892 106.835 24 107.159 24H111.155V23.28C109.895 23.28 108.995 22.704 108.059 21.3L102.119 12.516C103.163 12.264 107.447 11.148 107.447 7.08C107.447 2.94 103.523 1.176 97.7272 1.176H90.7432V1.896C92.9392 1.896 93.3712 2.4 93.3712 5.136C93.4072 10.176 93.2632 14.712 93.2632 20.04C93.2632 22.776 92.8312 23.28 90.2392 23.28V24ZM131.511 0.887999C124.383 0.887999 119.595 5.784 119.595 12.588C119.595 19.392 124.383 24.288 131.511 24.288C138.639 24.288 143.427 19.392 143.427 12.588C143.427 5.784 138.639 0.887999 131.511 0.887999ZM131.511 1.608C137.415 1.608 140.115 5.784 140.115 12.588C140.115 19.392 137.415 23.568 131.511 23.568C125.607 23.568 122.907 19.392 122.907 12.588C122.907 5.784 125.607 1.608 131.511 1.608ZM152.147 1.176V1.896C154.739 1.896 155.171 2.4 155.171 5.136C155.171 8.88 155.063 16.152 155.027 20.04C154.991 22.776 154.595 23.28 151.643 23.28V24H161.615V23.28C158.627 23.28 158.231 22.776 158.195 20.04V13.056H163.019C165.611 13.056 166.223 13.74 166.619 16.332H167.411V8.916H166.619C166.079 11.364 165.791 11.832 162.695 11.832H158.195L158.339 3.624C158.375 2.328 158.519 2.04 159.383 2.04H162.335C167.087 2.04 167.195 2.148 170.363 6.756H171.299C170.795 5.352 170.399 3.156 169.859 1.176H152.147ZM179.498 1.176V1.896C180.722 2.184 181.298 2.328 182.558 4.2L188.606 13.272V20.04C188.606 23.1 188.102 23.244 184.934 23.28V24H195.374V23.28C192.206 23.244 191.702 23.1 191.702 20.04V13.308L197.642 4.776C199.334 2.364 200.234 2.004 201.422 1.896V1.176H194.834V1.896C196.238 1.896 196.742 2.256 196.742 3.084C196.742 4.56 195.194 6.108 191.306 12.264C187.454 6.036 186.014 4.092 186.014 2.976C186.014 2.328 186.662 1.896 188.246 1.896V1.176H179.498Z" fill="black"/>
</svg>
